<mxfile host="app.diagrams.net" modified="2021-04-28T15:28:47.442Z" agent="5.0 (Windows NT 10.0; Win64; x64) AppleWebKit/537.36 (KHTML, like Gecko) Chrome/90.0.4430.93 Safari/537.36" etag="vEP4ajq4tFQdxziuipUl" version="14.6.6" type="github">
  <diagram id="Nd1oWFx_atoqUXSRUNfD" name="Page-1">
    <mxGraphModel dx="4824" dy="1270" grid="1" gridSize="10" guides="1" tooltips="1" connect="1" arrows="1" fold="1" page="1" pageScale="1" pageWidth="2336" pageHeight="1654" math="0" shadow="0">
      <root>
        <mxCell id="0" />
        <mxCell id="1" parent="0" />
        <mxCell id="ouz9YCxZX4cG_lU1-Dov-2" value="" style="rounded=0;whiteSpace=wrap;html=1;fillColor=#cce5ff;strokeColor=#36393d;" parent="1" vertex="1">
          <mxGeometry x="270" y="810" width="250" height="360" as="geometry" />
        </mxCell>
        <mxCell id="ouz9YCxZX4cG_lU1-Dov-5" value="Student" style="text;strokeColor=none;fillColor=none;html=1;fontSize=24;fontStyle=1;verticalAlign=middle;align=center;" parent="1" vertex="1">
          <mxGeometry x="345" y="810" width="100" height="40" as="geometry" />
        </mxCell>
        <mxCell id="ouz9YCxZX4cG_lU1-Dov-9" value="" style="rounded=0;whiteSpace=wrap;html=1;" parent="1" vertex="1">
          <mxGeometry x="270" y="850" width="250" height="320" as="geometry" />
        </mxCell>
        <mxCell id="ouz9YCxZX4cG_lU1-Dov-11" value="&lt;h1&gt;&lt;/h1&gt;&lt;h3&gt;&lt;/h3&gt;&lt;h5&gt;&lt;/h5&gt;&lt;h6&gt;&lt;/h6&gt;&lt;h3 style=&quot;line-height: 100% ; font-size: 13px&quot;&gt;&lt;/h3&gt;&lt;h1 style=&quot;font-size: 18px ; line-height: 90%&quot;&gt;&lt;/h1&gt;&lt;h3 style=&quot;font-size: 15px&quot;&gt;&lt;/h3&gt;&lt;h3 style=&quot;line-height: 120% ; font-size: 19px&quot;&gt;&lt;/h3&gt;&lt;h3&gt;&lt;/h3&gt;&lt;h4&gt;&lt;/h4&gt;&lt;h5&gt;&lt;/h5&gt;&lt;h3&gt;&lt;/h3&gt;&lt;h2&gt;&lt;/h2&gt;&lt;h2&gt;&lt;/h2&gt;&lt;h3&gt;&lt;/h3&gt;&lt;h2&gt;&lt;/h2&gt;&lt;h3 style=&quot;font-size: 17px&quot;&gt;&lt;/h3&gt;&lt;h3 style=&quot;font-size: 15px&quot;&gt;&lt;ul&gt;&lt;li&gt;ID (PK)&lt;/li&gt;&lt;/ul&gt;&lt;ul&gt;&lt;li&gt;First Name&lt;/li&gt;&lt;/ul&gt;&lt;ul&gt;&lt;li&gt;Last Name&lt;/li&gt;&lt;/ul&gt;&lt;ul&gt;&lt;li&gt;Gender&lt;/li&gt;&lt;/ul&gt;&lt;ul&gt;&lt;li&gt;Birth date&lt;/li&gt;&lt;/ul&gt;&lt;ul&gt;&lt;li&gt;Group_id (FK)&lt;/li&gt;&lt;/ul&gt;&lt;ul&gt;&lt;li&gt;HasChilds&lt;/li&gt;&lt;/ul&gt;&lt;ul&gt;&lt;li&gt;Stipend&lt;/li&gt;&lt;/ul&gt;&lt;/h3&gt;" style="text;strokeColor=none;fillColor=none;html=1;whiteSpace=wrap;verticalAlign=middle;overflow=hidden;" parent="1" vertex="1">
          <mxGeometry x="295" y="840" width="210" height="320" as="geometry" />
        </mxCell>
        <mxCell id="ouz9YCxZX4cG_lU1-Dov-14" value="" style="rounded=0;whiteSpace=wrap;html=1;fillColor=#cce5ff;strokeColor=#36393d;" parent="1" vertex="1">
          <mxGeometry x="790" y="1240" width="250" height="360" as="geometry" />
        </mxCell>
        <mxCell id="ouz9YCxZX4cG_lU1-Dov-15" value="Department" style="text;strokeColor=none;fillColor=none;html=1;fontSize=24;fontStyle=1;verticalAlign=middle;align=center;" parent="1" vertex="1">
          <mxGeometry x="865" y="1240" width="100" height="40" as="geometry" />
        </mxCell>
        <mxCell id="ouz9YCxZX4cG_lU1-Dov-16" value="" style="rounded=0;whiteSpace=wrap;html=1;" parent="1" vertex="1">
          <mxGeometry x="790" y="1280" width="250" height="320" as="geometry" />
        </mxCell>
        <mxCell id="ouz9YCxZX4cG_lU1-Dov-17" value="&lt;h1&gt;&lt;/h1&gt;&lt;h3&gt;&lt;/h3&gt;&lt;h5&gt;&lt;/h5&gt;&lt;h6&gt;&lt;/h6&gt;&lt;h3 style=&quot;line-height: 100% ; font-size: 13px&quot;&gt;&lt;/h3&gt;&lt;h1 style=&quot;font-size: 18px ; line-height: 90%&quot;&gt;&lt;/h1&gt;&lt;h3 style=&quot;font-size: 15px&quot;&gt;&lt;/h3&gt;&lt;h3 style=&quot;line-height: 120% ; font-size: 19px&quot;&gt;&lt;ul&gt;&lt;li&gt;ID (PK)&lt;/li&gt;&lt;/ul&gt;&lt;ul&gt;&lt;li&gt;Name&lt;/li&gt;&lt;/ul&gt;&lt;ul&gt;&lt;li&gt;Faculty_id (FK)&lt;/li&gt;&lt;/ul&gt;&lt;/h3&gt;" style="text;strokeColor=none;fillColor=none;html=1;whiteSpace=wrap;verticalAlign=middle;overflow=hidden;" parent="1" vertex="1">
          <mxGeometry x="810" y="1305" width="210" height="270" as="geometry" />
        </mxCell>
        <mxCell id="Sy2bzmZRH99KcoMjBGQ2-6" value="" style="rounded=0;whiteSpace=wrap;html=1;fillColor=#cce5ff;strokeColor=#36393d;" parent="1" vertex="1">
          <mxGeometry x="420" y="1240" width="250" height="360" as="geometry" />
        </mxCell>
        <mxCell id="Sy2bzmZRH99KcoMjBGQ2-7" value="Lecturer" style="text;strokeColor=none;fillColor=none;html=1;fontSize=24;fontStyle=1;verticalAlign=middle;align=center;" parent="1" vertex="1">
          <mxGeometry x="495" y="1240" width="100" height="40" as="geometry" />
        </mxCell>
        <mxCell id="Sy2bzmZRH99KcoMjBGQ2-8" value="" style="rounded=0;whiteSpace=wrap;html=1;" parent="1" vertex="1">
          <mxGeometry x="420" y="1280" width="250" height="320" as="geometry" />
        </mxCell>
        <mxCell id="Sy2bzmZRH99KcoMjBGQ2-9" value="&lt;h1&gt;&lt;/h1&gt;&lt;h3&gt;&lt;/h3&gt;&lt;h5&gt;&lt;/h5&gt;&lt;h6&gt;&lt;/h6&gt;&lt;h3 style=&quot;line-height: 100% ; font-size: 13px&quot;&gt;&lt;/h3&gt;&lt;h1 style=&quot;font-size: 18px ; line-height: 90%&quot;&gt;&lt;/h1&gt;&lt;h3 style=&quot;font-size: 15px&quot;&gt;&lt;/h3&gt;&lt;h3 style=&quot;line-height: 120% ; font-size: 19px&quot;&gt;&lt;/h3&gt;&lt;h2&gt;&lt;ul&gt;&lt;li&gt;ID (PK)&lt;/li&gt;&lt;/ul&gt;&lt;ul&gt;&lt;li&gt;First Name&lt;/li&gt;&lt;/ul&gt;&lt;ul&gt;&lt;li&gt;Last Name&lt;/li&gt;&lt;/ul&gt;&lt;ul&gt;&lt;li&gt;Department_id (FK)&lt;/li&gt;&lt;/ul&gt;&lt;ul&gt;&lt;li&gt;Post&lt;/li&gt;&lt;/ul&gt;&lt;ul&gt;&lt;li&gt;Degree&lt;/li&gt;&lt;li&gt;Birth date&lt;/li&gt;&lt;li&gt;Salary&lt;/li&gt;&lt;/ul&gt;&lt;/h2&gt;" style="text;strokeColor=none;fillColor=none;html=1;whiteSpace=wrap;verticalAlign=middle;overflow=hidden;" parent="1" vertex="1">
          <mxGeometry x="430" y="1305" width="230" height="315" as="geometry" />
        </mxCell>
        <mxCell id="iH29S17_ySRr5cnDG_7A-1" value="" style="rounded=0;whiteSpace=wrap;html=1;fillColor=#cce5ff;strokeColor=#36393d;" parent="1" vertex="1">
          <mxGeometry x="1160" y="1240" width="250" height="360" as="geometry" />
        </mxCell>
        <mxCell id="iH29S17_ySRr5cnDG_7A-2" value="Faculty" style="text;strokeColor=none;fillColor=none;html=1;fontSize=24;fontStyle=1;verticalAlign=middle;align=center;" parent="1" vertex="1">
          <mxGeometry x="1235" y="1240" width="100" height="40" as="geometry" />
        </mxCell>
        <mxCell id="iH29S17_ySRr5cnDG_7A-3" value="" style="rounded=0;whiteSpace=wrap;html=1;" parent="1" vertex="1">
          <mxGeometry x="1160" y="1280" width="250" height="320" as="geometry" />
        </mxCell>
        <mxCell id="iH29S17_ySRr5cnDG_7A-4" value="&lt;h1&gt;&lt;/h1&gt;&lt;h3&gt;&lt;/h3&gt;&lt;h5&gt;&lt;/h5&gt;&lt;h6&gt;&lt;/h6&gt;&lt;h3 style=&quot;line-height: 100% ; font-size: 13px&quot;&gt;&lt;/h3&gt;&lt;h1 style=&quot;font-size: 18px ; line-height: 90%&quot;&gt;&lt;/h1&gt;&lt;h3 style=&quot;font-size: 15px&quot;&gt;&lt;/h3&gt;&lt;h3 style=&quot;line-height: 120% ; font-size: 19px&quot;&gt;&lt;ul&gt;&lt;li&gt;ID (PK)&lt;/li&gt;&lt;/ul&gt;&lt;ul&gt;&lt;li&gt;Name&lt;/li&gt;&lt;/ul&gt;&lt;/h3&gt;" style="text;strokeColor=none;fillColor=none;html=1;whiteSpace=wrap;verticalAlign=middle;overflow=hidden;" parent="1" vertex="1">
          <mxGeometry x="1180" y="1305" width="210" height="270" as="geometry" />
        </mxCell>
        <mxCell id="iH29S17_ySRr5cnDG_7A-5" value="" style="rounded=0;whiteSpace=wrap;html=1;fillColor=#cce5ff;strokeColor=#36393d;" parent="1" vertex="1">
          <mxGeometry x="1160" y="810" width="250" height="360" as="geometry" />
        </mxCell>
        <mxCell id="iH29S17_ySRr5cnDG_7A-6" value="Specialty" style="text;strokeColor=none;fillColor=none;html=1;fontSize=24;fontStyle=1;verticalAlign=middle;align=center;" parent="1" vertex="1">
          <mxGeometry x="1235" y="810" width="100" height="40" as="geometry" />
        </mxCell>
        <mxCell id="iH29S17_ySRr5cnDG_7A-7" value="" style="rounded=0;whiteSpace=wrap;html=1;" parent="1" vertex="1">
          <mxGeometry x="1160" y="850" width="250" height="320" as="geometry" />
        </mxCell>
        <mxCell id="iH29S17_ySRr5cnDG_7A-8" value="&lt;h1&gt;&lt;/h1&gt;&lt;h3&gt;&lt;/h3&gt;&lt;h5&gt;&lt;/h5&gt;&lt;h6&gt;&lt;/h6&gt;&lt;h3 style=&quot;line-height: 100% ; font-size: 13px&quot;&gt;&lt;/h3&gt;&lt;h1 style=&quot;font-size: 18px ; line-height: 90%&quot;&gt;&lt;/h1&gt;&lt;h3 style=&quot;font-size: 15px&quot;&gt;&lt;/h3&gt;&lt;h3 style=&quot;line-height: 120% ; font-size: 19px&quot;&gt;&lt;ul&gt;&lt;li&gt;ID (PK)&lt;/li&gt;&lt;/ul&gt;&lt;ul&gt;&lt;li&gt;Name&lt;/li&gt;&lt;/ul&gt;&lt;ul&gt;&lt;li&gt;Department_id (FK)&lt;/li&gt;&lt;/ul&gt;&lt;/h3&gt;" style="text;strokeColor=none;fillColor=none;html=1;whiteSpace=wrap;verticalAlign=middle;overflow=hidden;" parent="1" vertex="1">
          <mxGeometry x="1180" y="875" width="210" height="270" as="geometry" />
        </mxCell>
        <mxCell id="iH29S17_ySRr5cnDG_7A-13" value="" style="rounded=0;whiteSpace=wrap;html=1;fillColor=#cce5ff;strokeColor=#36393d;" parent="1" vertex="1">
          <mxGeometry x="40" y="1240" width="250" height="360" as="geometry" />
        </mxCell>
        <mxCell id="iH29S17_ySRr5cnDG_7A-14" value="Subject" style="text;strokeColor=none;fillColor=none;html=1;fontSize=24;fontStyle=1;verticalAlign=middle;align=center;" parent="1" vertex="1">
          <mxGeometry x="115" y="1240" width="100" height="40" as="geometry" />
        </mxCell>
        <mxCell id="iH29S17_ySRr5cnDG_7A-15" value="" style="rounded=0;whiteSpace=wrap;html=1;" parent="1" vertex="1">
          <mxGeometry x="40" y="1280" width="250" height="320" as="geometry" />
        </mxCell>
        <mxCell id="iH29S17_ySRr5cnDG_7A-16" value="&lt;h1&gt;&lt;/h1&gt;&lt;h3&gt;&lt;/h3&gt;&lt;h5&gt;&lt;/h5&gt;&lt;h6&gt;&lt;/h6&gt;&lt;h3 style=&quot;line-height: 100% ; font-size: 13px&quot;&gt;&lt;/h3&gt;&lt;h1 style=&quot;font-size: 18px ; line-height: 90%&quot;&gt;&lt;/h1&gt;&lt;h3 style=&quot;font-size: 15px&quot;&gt;&lt;/h3&gt;&lt;h3 style=&quot;line-height: 120% ; font-size: 19px&quot;&gt;&lt;/h3&gt;&lt;h3 style=&quot;font-size: 19px&quot;&gt;&lt;ul&gt;&lt;li&gt;ID (PK)&lt;/li&gt;&lt;/ul&gt;&lt;ul&gt;&lt;li&gt;Name&lt;/li&gt;&lt;/ul&gt;&lt;ul&gt;&lt;li&gt;Lecturer_id (FK)&lt;/li&gt;&lt;/ul&gt;&lt;ul&gt;&lt;li&gt;Hours&lt;/li&gt;&lt;/ul&gt;&lt;/h3&gt;" style="text;strokeColor=none;fillColor=none;html=1;whiteSpace=wrap;verticalAlign=middle;overflow=hidden;" parent="1" vertex="1">
          <mxGeometry x="60" y="1305" width="210" height="270" as="geometry" />
        </mxCell>
        <mxCell id="iH29S17_ySRr5cnDG_7A-25" value="" style="rounded=0;whiteSpace=wrap;html=1;fillColor=#cce5ff;strokeColor=#36393d;" parent="1" vertex="1">
          <mxGeometry x="710" y="810" width="250" height="360" as="geometry" />
        </mxCell>
        <mxCell id="iH29S17_ySRr5cnDG_7A-26" value="Group" style="text;strokeColor=none;fillColor=none;html=1;fontSize=24;fontStyle=1;verticalAlign=middle;align=center;" parent="1" vertex="1">
          <mxGeometry x="785" y="810" width="100" height="40" as="geometry" />
        </mxCell>
        <mxCell id="iH29S17_ySRr5cnDG_7A-27" value="" style="rounded=0;whiteSpace=wrap;html=1;" parent="1" vertex="1">
          <mxGeometry x="710" y="850" width="250" height="320" as="geometry" />
        </mxCell>
        <mxCell id="iH29S17_ySRr5cnDG_7A-28" value="&lt;h1&gt;&lt;/h1&gt;&lt;h3&gt;&lt;/h3&gt;&lt;h5&gt;&lt;/h5&gt;&lt;h6&gt;&lt;/h6&gt;&lt;h3 style=&quot;line-height: 100% ; font-size: 13px&quot;&gt;&lt;/h3&gt;&lt;h1 style=&quot;font-size: 18px ; line-height: 90%&quot;&gt;&lt;/h1&gt;&lt;h3 style=&quot;font-size: 15px&quot;&gt;&lt;/h3&gt;&lt;h3 style=&quot;line-height: 120% ; font-size: 19px&quot;&gt;&lt;/h3&gt;&lt;h3&gt;&lt;/h3&gt;&lt;h1&gt;&lt;h2&gt;&lt;ul&gt;&lt;li&gt;ID (PK)&lt;/li&gt;&lt;/ul&gt;&lt;ul&gt;&lt;li&gt;Name&lt;/li&gt;&lt;/ul&gt;&lt;ul&gt;&lt;li&gt;Specialty_id (FK)&lt;/li&gt;&lt;/ul&gt;&lt;ul&gt;&lt;li&gt;Course&lt;/li&gt;&lt;/ul&gt;&lt;/h2&gt;&lt;/h1&gt;" style="text;strokeColor=none;fillColor=none;html=1;whiteSpace=wrap;verticalAlign=middle;overflow=hidden;" parent="1" vertex="1">
          <mxGeometry x="730" y="890" width="210" height="270" as="geometry" />
        </mxCell>
        <mxCell id="iH29S17_ySRr5cnDG_7A-34" value="" style="rounded=0;whiteSpace=wrap;html=1;fillColor=#cce5ff;strokeColor=#36393d;" parent="1" vertex="1">
          <mxGeometry x="1240" y="70" width="250" height="360" as="geometry" />
        </mxCell>
        <mxCell id="iH29S17_ySRr5cnDG_7A-35" value="Plan" style="text;strokeColor=none;fillColor=none;html=1;fontSize=24;fontStyle=1;verticalAlign=middle;align=center;" parent="1" vertex="1">
          <mxGeometry x="1315" y="70" width="100" height="40" as="geometry" />
        </mxCell>
        <mxCell id="iH29S17_ySRr5cnDG_7A-36" value="" style="rounded=0;whiteSpace=wrap;html=1;" parent="1" vertex="1">
          <mxGeometry x="1240" y="110" width="250" height="320" as="geometry" />
        </mxCell>
        <mxCell id="iH29S17_ySRr5cnDG_7A-37" value="&lt;h1&gt;&lt;/h1&gt;&lt;h3&gt;&lt;/h3&gt;&lt;h5&gt;&lt;/h5&gt;&lt;h6&gt;&lt;/h6&gt;&lt;h3 style=&quot;line-height: 100% ; font-size: 13px&quot;&gt;&lt;/h3&gt;&lt;h1 style=&quot;font-size: 18px ; line-height: 90%&quot;&gt;&lt;/h1&gt;&lt;h3 style=&quot;font-size: 15px&quot;&gt;&lt;/h3&gt;&lt;h3 style=&quot;line-height: 120% ; font-size: 19px&quot;&gt;&lt;h2&gt;&lt;ul&gt;&lt;li&gt;ID (PK)&lt;/li&gt;&lt;/ul&gt;&lt;ul&gt;&lt;li&gt;Workload1_id (FK)&lt;/li&gt;&lt;/ul&gt;&lt;ul&gt;&lt;li&gt;Workload2_id (FK)&lt;/li&gt;&lt;/ul&gt;&lt;ul&gt;&lt;li&gt;Workload3_id (FK)&lt;/li&gt;&lt;/ul&gt;&lt;ul&gt;&lt;li&gt;Group_id (FK)&lt;/li&gt;&lt;/ul&gt;&lt;/h2&gt;&lt;/h3&gt;" style="text;strokeColor=none;fillColor=none;html=1;whiteSpace=wrap;verticalAlign=middle;overflow=hidden;" parent="1" vertex="1">
          <mxGeometry x="1250" y="135" width="220" height="270" as="geometry" />
        </mxCell>
        <mxCell id="iH29S17_ySRr5cnDG_7A-40" value="" style="rounded=0;whiteSpace=wrap;html=1;fillColor=#cce5ff;strokeColor=#36393d;" parent="1" vertex="1">
          <mxGeometry x="1565" y="70" width="250" height="360" as="geometry" />
        </mxCell>
        <mxCell id="iH29S17_ySRr5cnDG_7A-41" value="Workload" style="text;strokeColor=none;fillColor=none;html=1;fontSize=24;fontStyle=1;verticalAlign=middle;align=center;" parent="1" vertex="1">
          <mxGeometry x="1640" y="70" width="100" height="40" as="geometry" />
        </mxCell>
        <mxCell id="iH29S17_ySRr5cnDG_7A-42" value="" style="rounded=0;whiteSpace=wrap;html=1;" parent="1" vertex="1">
          <mxGeometry x="1565" y="110" width="250" height="320" as="geometry" />
        </mxCell>
        <mxCell id="iH29S17_ySRr5cnDG_7A-43" value="&lt;h1&gt;&lt;/h1&gt;&lt;h3&gt;&lt;/h3&gt;&lt;h5&gt;&lt;/h5&gt;&lt;h6&gt;&lt;/h6&gt;&lt;h3 style=&quot;line-height: 100% ; font-size: 13px&quot;&gt;&lt;/h3&gt;&lt;h1 style=&quot;font-size: 18px ; line-height: 90%&quot;&gt;&lt;/h1&gt;&lt;h3 style=&quot;font-size: 15px&quot;&gt;&lt;/h3&gt;&lt;h3 style=&quot;line-height: 120% ; font-size: 19px&quot;&gt;&lt;/h3&gt;&lt;h2&gt;&lt;h2&gt;&lt;ul&gt;&lt;li&gt;ID (PK)&lt;/li&gt;&lt;/ul&gt;&lt;ul&gt;&lt;li&gt;Subject_id (FK)&lt;/li&gt;&lt;/ul&gt;&lt;ul&gt;&lt;li&gt;Lab&lt;/li&gt;&lt;/ul&gt;&lt;ul&gt;&lt;li&gt;Lect&lt;/li&gt;&lt;/ul&gt;&lt;ul&gt;&lt;li&gt;Pract&lt;/li&gt;&lt;/ul&gt;&lt;ul&gt;&lt;li&gt;Hours&lt;/li&gt;&lt;/ul&gt;&lt;ul&gt;&lt;li&gt;Lecturer_id (FK)&lt;/li&gt;&lt;/ul&gt;&lt;/h2&gt;&lt;/h2&gt;" style="text;strokeColor=none;fillColor=none;html=1;whiteSpace=wrap;verticalAlign=middle;overflow=hidden;" parent="1" vertex="1">
          <mxGeometry x="1585" y="120" width="210" height="290" as="geometry" />
        </mxCell>
        <mxCell id="Fq57MsM5_XtOPImEE2Wt-29" value="" style="rounded=0;whiteSpace=wrap;html=1;fillColor=#cce5ff;strokeColor=#36393d;" parent="1" vertex="1">
          <mxGeometry x="420" y="1654" width="250" height="360" as="geometry" />
        </mxCell>
        <mxCell id="Fq57MsM5_XtOPImEE2Wt-30" value="Dissertation" style="text;strokeColor=none;fillColor=none;html=1;fontSize=24;fontStyle=1;verticalAlign=middle;align=center;" parent="1" vertex="1">
          <mxGeometry x="495" y="1654" width="100" height="40" as="geometry" />
        </mxCell>
        <mxCell id="Fq57MsM5_XtOPImEE2Wt-31" value="" style="rounded=0;whiteSpace=wrap;html=1;" parent="1" vertex="1">
          <mxGeometry x="420" y="1694" width="250" height="320" as="geometry" />
        </mxCell>
        <mxCell id="Fq57MsM5_XtOPImEE2Wt-32" value="&lt;h1&gt;&lt;/h1&gt;&lt;h3&gt;&lt;/h3&gt;&lt;h5&gt;&lt;/h5&gt;&lt;h6&gt;&lt;/h6&gt;&lt;h3 style=&quot;line-height: 100% ; font-size: 13px&quot;&gt;&lt;/h3&gt;&lt;h1 style=&quot;font-size: 18px ; line-height: 90%&quot;&gt;&lt;/h1&gt;&lt;h3 style=&quot;font-size: 15px&quot;&gt;&lt;/h3&gt;&lt;h3 style=&quot;line-height: 120% ; font-size: 19px&quot;&gt;&lt;ul&gt;&lt;li&gt;ID (PK)&lt;/li&gt;&lt;/ul&gt;&lt;ul&gt;&lt;li&gt;Theme&lt;/li&gt;&lt;/ul&gt;&lt;ul&gt;&lt;li&gt;Degree&lt;/li&gt;&lt;/ul&gt;&lt;ul&gt;&lt;li&gt;Lecturer_id (FK)&lt;/li&gt;&lt;/ul&gt;&lt;/h3&gt;" style="text;strokeColor=none;fillColor=none;html=1;whiteSpace=wrap;verticalAlign=middle;overflow=hidden;" parent="1" vertex="1">
          <mxGeometry x="440" y="1719" width="210" height="270" as="geometry" />
        </mxCell>
        <mxCell id="Fq57MsM5_XtOPImEE2Wt-34" value="" style="rounded=0;whiteSpace=wrap;html=1;fillColor=#cce5ff;strokeColor=#36393d;" parent="1" vertex="1">
          <mxGeometry x="270" y="400" width="250" height="360" as="geometry" />
        </mxCell>
        <mxCell id="Fq57MsM5_XtOPImEE2Wt-35" value="Exams" style="text;strokeColor=none;fillColor=none;html=1;fontSize=24;fontStyle=1;verticalAlign=middle;align=center;" parent="1" vertex="1">
          <mxGeometry x="345" y="400" width="100" height="40" as="geometry" />
        </mxCell>
        <mxCell id="Fq57MsM5_XtOPImEE2Wt-36" value="" style="rounded=0;whiteSpace=wrap;html=1;" parent="1" vertex="1">
          <mxGeometry x="270" y="440" width="250" height="320" as="geometry" />
        </mxCell>
        <mxCell id="Fq57MsM5_XtOPImEE2Wt-37" value="&lt;h1&gt;&lt;/h1&gt;&lt;h3&gt;&lt;/h3&gt;&lt;h5&gt;&lt;/h5&gt;&lt;h6&gt;&lt;/h6&gt;&lt;h3 style=&quot;line-height: 100% ; font-size: 13px&quot;&gt;&lt;/h3&gt;&lt;h1 style=&quot;font-size: 18px ; line-height: 90%&quot;&gt;&lt;/h1&gt;&lt;h3 style=&quot;font-size: 15px&quot;&gt;&lt;/h3&gt;&lt;h3 style=&quot;line-height: 120% ; font-size: 19px&quot;&gt;&lt;/h3&gt;&lt;h2&gt;&lt;/h2&gt;&lt;h2&gt;&lt;ul&gt;&lt;li&gt;ID (PK)&lt;/li&gt;&lt;/ul&gt;&lt;ul&gt;&lt;li&gt;Subject_id (FK)&lt;/li&gt;&lt;/ul&gt;&lt;ul&gt;&lt;li&gt;Group_id (FK)&lt;/li&gt;&lt;/ul&gt;&lt;ul&gt;&lt;li&gt;Date&lt;/li&gt;&lt;/ul&gt;&lt;ul&gt;&lt;li&gt;Lecturer_id (FK)&lt;/li&gt;&lt;/ul&gt;&lt;ul&gt;&lt;li&gt;Semestre&lt;/li&gt;&lt;/ul&gt;&lt;/h2&gt;" style="text;strokeColor=none;fillColor=none;html=1;whiteSpace=wrap;verticalAlign=middle;overflow=hidden;" parent="1" vertex="1">
          <mxGeometry x="290" y="465" width="210" height="270" as="geometry" />
        </mxCell>
        <mxCell id="Fq57MsM5_XtOPImEE2Wt-38" value="" style="rounded=0;whiteSpace=wrap;html=1;fillColor=#cce5ff;strokeColor=#36393d;" parent="1" vertex="1">
          <mxGeometry x="620" y="400" width="250" height="360" as="geometry" />
        </mxCell>
        <mxCell id="Fq57MsM5_XtOPImEE2Wt-39" value="Exam_Marks" style="text;strokeColor=none;fillColor=none;html=1;fontSize=24;fontStyle=1;verticalAlign=middle;align=center;" parent="1" vertex="1">
          <mxGeometry x="695" y="400" width="100" height="40" as="geometry" />
        </mxCell>
        <mxCell id="Fq57MsM5_XtOPImEE2Wt-40" value="" style="rounded=0;whiteSpace=wrap;html=1;" parent="1" vertex="1">
          <mxGeometry x="620" y="440" width="250" height="320" as="geometry" />
        </mxCell>
        <mxCell id="Fq57MsM5_XtOPImEE2Wt-41" value="&lt;h1&gt;&lt;/h1&gt;&lt;h3&gt;&lt;/h3&gt;&lt;h5&gt;&lt;/h5&gt;&lt;h6&gt;&lt;/h6&gt;&lt;h3 style=&quot;line-height: 100% ; font-size: 13px&quot;&gt;&lt;/h3&gt;&lt;h1 style=&quot;font-size: 18px ; line-height: 90%&quot;&gt;&lt;/h1&gt;&lt;h3 style=&quot;font-size: 15px&quot;&gt;&lt;/h3&gt;&lt;h3 style=&quot;line-height: 120% ; font-size: 19px&quot;&gt;&lt;h2&gt;&lt;ul&gt;&lt;li&gt;ID (PK)&lt;/li&gt;&lt;/ul&gt;&lt;ul&gt;&lt;li&gt;Student_id (FK)&lt;/li&gt;&lt;/ul&gt;&lt;ul&gt;&lt;li&gt;Mark&lt;/li&gt;&lt;/ul&gt;&lt;ul&gt;&lt;li&gt;Exam_id&lt;/li&gt;&lt;/ul&gt;&lt;/h2&gt;&lt;/h3&gt;" style="text;strokeColor=none;fillColor=none;html=1;whiteSpace=wrap;verticalAlign=middle;overflow=hidden;" parent="1" vertex="1">
          <mxGeometry x="640" y="465" width="210" height="270" as="geometry" />
        </mxCell>
        <mxCell id="Qoz3szWXgfFQDnbkg1fF-1" value="" style="rounded=0;whiteSpace=wrap;html=1;fillColor=#cce5ff;strokeColor=#36393d;" parent="1" vertex="1">
          <mxGeometry x="-280" y="405" width="250" height="360" as="geometry" />
        </mxCell>
        <mxCell id="Qoz3szWXgfFQDnbkg1fF-2" value="Student Child" style="text;strokeColor=none;fillColor=none;html=1;fontSize=24;fontStyle=1;verticalAlign=middle;align=center;" parent="1" vertex="1">
          <mxGeometry x="-205" y="405" width="100" height="40" as="geometry" />
        </mxCell>
        <mxCell id="Qoz3szWXgfFQDnbkg1fF-3" value="" style="rounded=0;whiteSpace=wrap;html=1;" parent="1" vertex="1">
          <mxGeometry x="-280" y="445" width="250" height="320" as="geometry" />
        </mxCell>
        <mxCell id="Qoz3szWXgfFQDnbkg1fF-4" value="&lt;h1&gt;&lt;/h1&gt;&lt;h3&gt;&lt;/h3&gt;&lt;h5&gt;&lt;/h5&gt;&lt;h6&gt;&lt;/h6&gt;&lt;h3 style=&quot;line-height: 100% ; font-size: 13px&quot;&gt;&lt;/h3&gt;&lt;h1 style=&quot;font-size: 18px ; line-height: 90%&quot;&gt;&lt;/h1&gt;&lt;h3 style=&quot;font-size: 15px&quot;&gt;&lt;/h3&gt;&lt;h3 style=&quot;line-height: 120% ; font-size: 19px&quot;&gt;&lt;/h3&gt;&lt;h3&gt;&lt;/h3&gt;&lt;h4&gt;&lt;/h4&gt;&lt;h5&gt;&lt;/h5&gt;&lt;h3&gt;&lt;/h3&gt;&lt;h2&gt;&lt;/h2&gt;&lt;h2&gt;&lt;/h2&gt;&lt;h3&gt;&lt;/h3&gt;&lt;h2&gt;&lt;/h2&gt;&lt;h3 style=&quot;font-size: 17px&quot;&gt;&lt;/h3&gt;&lt;h3 style=&quot;font-size: 15px&quot;&gt;&lt;ul&gt;&lt;li&gt;ID (PK)&lt;/li&gt;&lt;/ul&gt;&lt;ul&gt;&lt;li&gt;First Name&lt;/li&gt;&lt;/ul&gt;&lt;ul&gt;&lt;li&gt;Last Name&lt;/li&gt;&lt;/ul&gt;&lt;ul&gt;&lt;li&gt;Gender&lt;/li&gt;&lt;/ul&gt;&lt;ul&gt;&lt;li&gt;Birth date&lt;/li&gt;&lt;/ul&gt;&lt;ul&gt;&lt;li&gt;Parent_id (FK)&lt;/li&gt;&lt;/ul&gt;&lt;/h3&gt;" style="text;strokeColor=none;fillColor=none;html=1;whiteSpace=wrap;verticalAlign=middle;overflow=hidden;" parent="1" vertex="1">
          <mxGeometry x="-255" y="435" width="210" height="320" as="geometry" />
        </mxCell>
        <mxCell id="Qoz3szWXgfFQDnbkg1fF-9" value="" style="edgeStyle=elbowEdgeStyle;elbow=horizontal;endArrow=classic;html=1;strokeWidth=2;exitX=-0.001;exitY=0.123;exitDx=0;exitDy=0;exitPerimeter=0;entryX=1;entryY=0.725;entryDx=0;entryDy=0;entryPerimeter=0;" parent="1" source="ouz9YCxZX4cG_lU1-Dov-9" target="Qoz3szWXgfFQDnbkg1fF-3" edge="1">
          <mxGeometry width="50" height="50" relative="1" as="geometry">
            <mxPoint x="180" y="1040" as="sourcePoint" />
            <mxPoint x="180" y="1090" as="targetPoint" />
          </mxGeometry>
        </mxCell>
        <mxCell id="Qoz3szWXgfFQDnbkg1fF-10" value="" style="edgeStyle=elbowEdgeStyle;elbow=horizontal;endArrow=classic;html=1;strokeWidth=2;exitX=-0.001;exitY=0.123;exitDx=0;exitDy=0;exitPerimeter=0;entryX=1;entryY=0.625;entryDx=0;entryDy=0;entryPerimeter=0;" parent="1" target="ouz9YCxZX4cG_lU1-Dov-9" edge="1">
          <mxGeometry width="50" height="50" relative="1" as="geometry">
            <mxPoint x="710" y="967.3599999999999" as="sourcePoint" />
            <mxPoint x="610.25" y="1160" as="targetPoint" />
          </mxGeometry>
        </mxCell>
        <mxCell id="Qoz3szWXgfFQDnbkg1fF-12" value="" style="rounded=0;whiteSpace=wrap;html=1;fillColor=#cce5ff;strokeColor=#36393d;" parent="1" vertex="1">
          <mxGeometry x="40" y="1654" width="250" height="360" as="geometry" />
        </mxCell>
        <mxCell id="Qoz3szWXgfFQDnbkg1fF-13" value="Post" style="text;strokeColor=none;fillColor=none;html=1;fontSize=24;fontStyle=1;verticalAlign=middle;align=center;" parent="1" vertex="1">
          <mxGeometry x="115" y="1654" width="100" height="40" as="geometry" />
        </mxCell>
        <mxCell id="Qoz3szWXgfFQDnbkg1fF-14" value="" style="rounded=0;whiteSpace=wrap;html=1;" parent="1" vertex="1">
          <mxGeometry x="40" y="1694" width="250" height="320" as="geometry" />
        </mxCell>
        <mxCell id="Qoz3szWXgfFQDnbkg1fF-15" value="&lt;h1&gt;&lt;/h1&gt;&lt;h3&gt;&lt;/h3&gt;&lt;h5&gt;&lt;/h5&gt;&lt;h6&gt;&lt;/h6&gt;&lt;h3 style=&quot;line-height: 100% ; font-size: 13px&quot;&gt;&lt;/h3&gt;&lt;h1 style=&quot;font-size: 18px ; line-height: 90%&quot;&gt;&lt;/h1&gt;&lt;h3 style=&quot;font-size: 15px&quot;&gt;&lt;/h3&gt;&lt;h3 style=&quot;line-height: 120% ; font-size: 19px&quot;&gt;&lt;ul&gt;&lt;li&gt;ID (PK)&lt;/li&gt;&lt;/ul&gt;&lt;ul&gt;&lt;li&gt;Lecturer_id (FK)&lt;/li&gt;&lt;/ul&gt;&lt;ul&gt;&lt;li&gt;Post&lt;/li&gt;&lt;/ul&gt;&lt;/h3&gt;" style="text;strokeColor=none;fillColor=none;html=1;whiteSpace=wrap;verticalAlign=middle;overflow=hidden;" parent="1" vertex="1">
          <mxGeometry x="60" y="1719" width="210" height="270" as="geometry" />
        </mxCell>
        <mxCell id="jYdw-NIRmFGCxaE_p19X-1" value="" style="edgeStyle=elbowEdgeStyle;elbow=horizontal;endArrow=classic;html=1;strokeWidth=2;exitX=-0.001;exitY=0.123;exitDx=0;exitDy=0;exitPerimeter=0;entryX=1;entryY=0.5;entryDx=0;entryDy=0;" parent="1" target="Qoz3szWXgfFQDnbkg1fF-14" edge="1">
          <mxGeometry width="50" height="50" relative="1" as="geometry">
            <mxPoint x="419.9999999999991" y="1340" as="sourcePoint" />
            <mxPoint x="320.25" y="1532.6399999999999" as="targetPoint" />
          </mxGeometry>
        </mxCell>
        <mxCell id="jYdw-NIRmFGCxaE_p19X-3" value="" style="edgeStyle=elbowEdgeStyle;elbow=horizontal;endArrow=classic;html=1;strokeWidth=2;exitX=-0.001;exitY=0.123;exitDx=0;exitDy=0;exitPerimeter=0;entryX=1.004;entryY=0.576;entryDx=0;entryDy=0;entryPerimeter=0;" parent="1" target="iH29S17_ySRr5cnDG_7A-15" edge="1">
          <mxGeometry width="50" height="50" relative="1" as="geometry">
            <mxPoint x="420" y="1339.9999999999998" as="sourcePoint" />
            <mxPoint x="320.25" y="1532.6399999999999" as="targetPoint" />
            <Array as="points">
              <mxPoint x="340" y="1400" />
              <mxPoint x="350" y="1440" />
            </Array>
          </mxGeometry>
        </mxCell>
        <mxCell id="jYdw-NIRmFGCxaE_p19X-4" value="" style="edgeStyle=elbowEdgeStyle;elbow=horizontal;endArrow=classic;html=1;strokeWidth=2;exitX=-0.001;exitY=0.123;exitDx=0;exitDy=0;exitPerimeter=0;" parent="1" edge="1">
          <mxGeometry width="50" height="50" relative="1" as="geometry">
            <mxPoint x="419.9999999999991" y="1340" as="sourcePoint" />
            <mxPoint x="420" y="1922.857142857143" as="targetPoint" />
            <Array as="points">
              <mxPoint x="370" y="1600" />
            </Array>
          </mxGeometry>
        </mxCell>
        <mxCell id="jYdw-NIRmFGCxaE_p19X-5" value="" style="rounded=0;whiteSpace=wrap;html=1;fillColor=#cce5ff;strokeColor=#36393d;" parent="1" vertex="1">
          <mxGeometry x="-270" y="810" width="250" height="360" as="geometry" />
        </mxCell>
        <mxCell id="jYdw-NIRmFGCxaE_p19X-6" value="Thesis work" style="text;strokeColor=none;fillColor=none;html=1;fontSize=24;fontStyle=1;verticalAlign=middle;align=center;" parent="1" vertex="1">
          <mxGeometry x="-195" y="810" width="100" height="40" as="geometry" />
        </mxCell>
        <mxCell id="jYdw-NIRmFGCxaE_p19X-7" value="" style="rounded=0;whiteSpace=wrap;html=1;" parent="1" vertex="1">
          <mxGeometry x="-270" y="850" width="250" height="320" as="geometry" />
        </mxCell>
        <mxCell id="jYdw-NIRmFGCxaE_p19X-8" value="&lt;h1&gt;&lt;/h1&gt;&lt;h3&gt;&lt;/h3&gt;&lt;h5&gt;&lt;/h5&gt;&lt;h6&gt;&lt;/h6&gt;&lt;h3 style=&quot;line-height: 100% ; font-size: 13px&quot;&gt;&lt;/h3&gt;&lt;h1 style=&quot;font-size: 18px ; line-height: 90%&quot;&gt;&lt;/h1&gt;&lt;h3 style=&quot;font-size: 15px&quot;&gt;&lt;/h3&gt;&lt;h3 style=&quot;line-height: 120% ; font-size: 19px&quot;&gt;&lt;/h3&gt;&lt;h2&gt;&lt;/h2&gt;&lt;h2&gt;&lt;ul&gt;&lt;li&gt;ID (PK)&lt;/li&gt;&lt;/ul&gt;&lt;ul&gt;&lt;li&gt;Student_id (FK)&lt;/li&gt;&lt;/ul&gt;&lt;ul&gt;&lt;li&gt;Theme&lt;/li&gt;&lt;/ul&gt;&lt;ul&gt;&lt;li&gt;Lecturer_id (FK)&lt;/li&gt;&lt;/ul&gt;&lt;/h2&gt;" style="text;strokeColor=none;fillColor=none;html=1;whiteSpace=wrap;verticalAlign=middle;overflow=hidden;" parent="1" vertex="1">
          <mxGeometry x="-250" y="875" width="210" height="270" as="geometry" />
        </mxCell>
        <mxCell id="mOBFhouquNNja4qBk2h7-2" value="" style="edgeStyle=elbowEdgeStyle;elbow=horizontal;endArrow=classic;html=1;strokeWidth=2;exitX=-0.001;exitY=0.123;exitDx=0;exitDy=0;exitPerimeter=0;entryX=1;entryY=0.219;entryDx=0;entryDy=0;entryPerimeter=0;" parent="1" target="Fq57MsM5_XtOPImEE2Wt-36" edge="1">
          <mxGeometry width="50" height="50" relative="1" as="geometry">
            <mxPoint x="620" y="659.9999999999999" as="sourcePoint" />
            <mxPoint x="550" y="510" as="targetPoint" />
            <Array as="points">
              <mxPoint x="580" y="610" />
              <mxPoint x="570" y="590" />
            </Array>
          </mxGeometry>
        </mxCell>
        <mxCell id="mOBFhouquNNja4qBk2h7-3" value="" style="edgeStyle=elbowEdgeStyle;elbow=horizontal;endArrow=classic;html=1;strokeWidth=2;exitX=-0.001;exitY=0.123;exitDx=0;exitDy=0;exitPerimeter=0;entryX=1.001;entryY=0.626;entryDx=0;entryDy=0;entryPerimeter=0;" parent="1" target="ouz9YCxZX4cG_lU1-Dov-16" edge="1">
          <mxGeometry width="50" height="50" relative="1" as="geometry">
            <mxPoint x="1160" y="1420" as="sourcePoint" />
            <mxPoint x="1060.25" y="1612.6399999999999" as="targetPoint" />
          </mxGeometry>
        </mxCell>
        <mxCell id="mOBFhouquNNja4qBk2h7-5" value="" style="edgeStyle=elbowEdgeStyle;elbow=horizontal;endArrow=classic;html=1;strokeWidth=2;exitX=-0.001;exitY=0.123;exitDx=0;exitDy=0;exitPerimeter=0;entryX=1.001;entryY=0.626;entryDx=0;entryDy=0;entryPerimeter=0;" parent="1" edge="1">
          <mxGeometry width="50" height="50" relative="1" as="geometry">
            <mxPoint x="790" y="1400" as="sourcePoint" />
            <mxPoint x="670.25" y="1460.3199999999997" as="targetPoint" />
          </mxGeometry>
        </mxCell>
        <mxCell id="5l8Z6zfukfM8TU0OT9rY-1" value="" style="edgeStyle=elbowEdgeStyle;elbow=horizontal;endArrow=classic;html=1;strokeWidth=2;entryX=0;entryY=0.594;entryDx=0;entryDy=0;entryPerimeter=0;exitX=1.001;exitY=0.374;exitDx=0;exitDy=0;exitPerimeter=0;" parent="1" source="ouz9YCxZX4cG_lU1-Dov-16" target="iH29S17_ySRr5cnDG_7A-7" edge="1">
          <mxGeometry width="50" height="50" relative="1" as="geometry">
            <mxPoint x="1080" y="1370" as="sourcePoint" />
            <mxPoint x="1130" y="1090" as="targetPoint" />
          </mxGeometry>
        </mxCell>
        <mxCell id="5l8Z6zfukfM8TU0OT9rY-2" value="" style="edgeStyle=elbowEdgeStyle;elbow=horizontal;endArrow=classic;html=1;strokeWidth=2;exitX=-0.001;exitY=0.123;exitDx=0;exitDy=0;exitPerimeter=0;entryX=1.001;entryY=0.594;entryDx=0;entryDy=0;entryPerimeter=0;" parent="1" target="iH29S17_ySRr5cnDG_7A-27" edge="1">
          <mxGeometry width="50" height="50" relative="1" as="geometry">
            <mxPoint x="1160" y="958.68" as="sourcePoint" />
            <mxPoint x="970" y="1041.32" as="targetPoint" />
          </mxGeometry>
        </mxCell>
        <mxCell id="TD55bzLbv_8N2aDH706v-2" value="" style="edgeStyle=elbowEdgeStyle;elbow=horizontal;endArrow=classic;html=1;strokeWidth=2;exitX=-0.001;exitY=0.123;exitDx=0;exitDy=0;exitPerimeter=0;entryX=-0.008;entryY=0.314;entryDx=0;entryDy=0;entryPerimeter=0;" edge="1" parent="1" target="iH29S17_ySRr5cnDG_7A-15">
          <mxGeometry width="50" height="50" relative="1" as="geometry">
            <mxPoint x="270" y="539.92" as="sourcePoint" />
            <mxPoint x="20" y="1380" as="targetPoint" />
            <Array as="points">
              <mxPoint x="10" y="960" />
            </Array>
          </mxGeometry>
        </mxCell>
        <mxCell id="TD55bzLbv_8N2aDH706v-4" value="" style="edgeStyle=elbowEdgeStyle;elbow=horizontal;endArrow=classic;html=1;strokeWidth=2;exitX=-0.001;exitY=0.123;exitDx=0;exitDy=0;exitPerimeter=0;entryX=1.001;entryY=0.092;entryDx=0;entryDy=0;entryPerimeter=0;" edge="1" parent="1" target="ouz9YCxZX4cG_lU1-Dov-9">
          <mxGeometry width="50" height="50" relative="1" as="geometry">
            <mxPoint x="620" y="579.92" as="sourcePoint" />
            <mxPoint x="520" y="429.99999999999994" as="targetPoint" />
            <Array as="points">
              <mxPoint x="600" y="730" />
              <mxPoint x="570" y="509.92" />
            </Array>
          </mxGeometry>
        </mxCell>
        <mxCell id="TD55bzLbv_8N2aDH706v-5" value="" style="edgeStyle=elbowEdgeStyle;elbow=horizontal;endArrow=classic;html=1;strokeWidth=2;entryX=0.999;entryY=0.439;entryDx=0;entryDy=0;entryPerimeter=0;" edge="1" parent="1" target="Fq57MsM5_XtOPImEE2Wt-36">
          <mxGeometry width="50" height="50" relative="1" as="geometry">
            <mxPoint x="710" y="970" as="sourcePoint" />
            <mxPoint x="530.25" y="889.44" as="targetPoint" />
            <Array as="points">
              <mxPoint x="570" y="640" />
              <mxPoint x="580" y="519.9200000000001" />
            </Array>
          </mxGeometry>
        </mxCell>
        <mxCell id="TD55bzLbv_8N2aDH706v-6" value="" style="edgeStyle=elbowEdgeStyle;elbow=horizontal;endArrow=classic;html=1;strokeWidth=2;entryX=0.999;entryY=0.439;entryDx=0;entryDy=0;entryPerimeter=0;exitX=1.006;exitY=0.205;exitDx=0;exitDy=0;exitPerimeter=0;" edge="1" parent="1" source="Sy2bzmZRH99KcoMjBGQ2-8">
          <mxGeometry width="50" height="50" relative="1" as="geometry">
            <mxPoint x="700" y="1230" as="sourcePoint" />
            <mxPoint x="519.75" y="660" as="targetPoint" />
            <Array as="points">
              <mxPoint x="560" y="790" />
              <mxPoint x="700" y="1260" />
              <mxPoint x="560" y="860" />
              <mxPoint x="580" y="599.44" />
            </Array>
          </mxGeometry>
        </mxCell>
        <mxCell id="TD55bzLbv_8N2aDH706v-8" value="" style="edgeStyle=elbowEdgeStyle;elbow=horizontal;endArrow=classic;html=1;strokeWidth=2;exitX=0;exitY=0.126;exitDx=0;exitDy=0;exitPerimeter=0;entryX=1.001;entryY=0.445;entryDx=0;entryDy=0;entryPerimeter=0;" edge="1" parent="1" source="ouz9YCxZX4cG_lU1-Dov-9" target="jYdw-NIRmFGCxaE_p19X-7">
          <mxGeometry width="50" height="50" relative="1" as="geometry">
            <mxPoint x="279.75" y="899.3600000000001" as="sourcePoint" />
            <mxPoint y="930" as="targetPoint" />
            <Array as="points">
              <mxPoint x="170" y="940" />
            </Array>
          </mxGeometry>
        </mxCell>
        <mxCell id="TD55bzLbv_8N2aDH706v-9" value="" style="edgeStyle=elbowEdgeStyle;elbow=horizontal;endArrow=classic;html=1;strokeWidth=2;entryX=1.024;entryY=0.694;entryDx=0;entryDy=0;entryPerimeter=0;" edge="1" parent="1" target="jYdw-NIRmFGCxaE_p19X-7">
          <mxGeometry width="50" height="50" relative="1" as="geometry">
            <mxPoint x="410" y="1340" as="sourcePoint" />
            <mxPoint x="-9.75" y="1002.4000000000001" as="targetPoint" />
            <Array as="points">
              <mxPoint x="260" y="1190" />
            </Array>
          </mxGeometry>
        </mxCell>
      </root>
    </mxGraphModel>
  </diagram>
</mxfile>
